PathFileType	4	(X/Y/Z)	C:/Users/empri/Downloads/Take 2024-05-09 02.19.22 PM.trc
DataRate	CameraRate	NumFrames	NumMarkers	Units	OrigDataRate	OrigDataStartFrame	OrigNumFrames
240	240	35	9	mm	240	311	830
Frame#	Time	C7	CLAV	RELB	RFIN	RFRM	RSHO	RUPA	RWRA	RWRB
X1	Y1	Z1	X2	Y2	Z2	X3	Y3	Z3	X4	Y4	Z4	X5	Y5	Z5	X6	Y6	Z6	X7	Y7	Z7	X8	Y8	Z8	X9	Y9	Z9
311	1.296	-115.765	1541.69	-42.0639	43.0475	1365.33	-138.555	106.366	1154.55	131.561	282.672	996.638	-75.4145	143.957	1041.35	92.0675	33.8258	1480.61	72.2647	68.8781	1321.32	137.42	211.712	1041.31	-36.8688	160.51	958.6	-28.2841
312	1.3	-115.8	1541.67	-41.9922	43.0376	1365.35	-138.486	106.485	1154.69	131.179	283.863	1000.33	-77.076	144.592	1042.1	90.7059	33.7693	1480.54	72.3602	68.8946	1321.23	137.371	212.623	1044.2	-37.9668	161.67	961.3	-31.0293
313	1.304	-115.851	1541.66	-41.9027	42.9741	1365.35	-138.414	106.634	1154.85	130.821	284.979	1004.14	-78.7149	145.302	1042.91	89.2733	33.7161	1480.48	72.4455	68.9089	1321.14	137.325	213.473	1047.01	-39.0423	162.848	963.838	-33.731
314	1.308	-115.889	1541.64	-41.8233	42.9504	1365.37	-138.331	106.834	1155	130.465	286.159	1007.99	-80.4123	146.035	1043.78	87.8072	33.6601	1480.42	72.5304	68.9384	1321.04	137.274	214.317	1049.96	-40.1659	164.081	966.53	-36.3442
315	1.313	-115.968	1541.61	-41.7209	42.8997	1365.36	-138.246	107.139	1155.15	130.005	287.573	1012.92	-82.5284	146.96	1044.9	86.0196	33.6063	1480.33	72.6267	68.9716	1320.91	137.183	215.342	1053.7	-41.549	165.598	969.957	-39.6756
316	1.317	-116.003	1541.6	-41.637	42.8429	1365.35	-138.196	107.377	1155.23	129.629	288.681	1016.89	-84.2351	147.745	1045.8	84.5151	33.555	1480.28	72.7163	69.0102	1320.8	137.102	216.137	1056.64	-42.6936	166.794	972.771	-42.3529
317	1.321	-116.045	1541.58	-41.5643	42.8281	1365.36	-138.127	107.613	1155.31	129.252	289.754	1020.95	-85.9251	148.553	1046.72	82.9674	33.5127	1480.24	72.8005	69.0436	1320.7	136.991	216.947	1059.72	-43.8083	167.972	975.61	-44.8693
318	1.325	-116.086	1541.57	-41.4782	42.7909	1365.36	-138.066	107.83	1155.37	128.859	290.776	1025.09	-87.5783	149.327	1047.75	81.4558	33.4452	1480.18	72.8841	69.1002	1320.62	136.885	217.653	1062.77	-44.8914	169.218	978.481	-47.4023
319	1.329	-116.13	1541.55	-41.4064	42.7521	1365.36	-138.004	108.094	1155.49	128.442	291.816	1029.18	-89.2084	150.09	1048.74	79.9144	33.3948	1480.14	72.9619	69.1636	1320.52	136.771	218.427	1065.85	-46.0089	170.638	981.356	-49.9136
320	1.333	-116.176	1541.54	-41.3259	42.7162	1365.37	-137.939	108.35	1155.6	127.985	292.766	1033.29	-90.8449	150.881	1049.78	78.3377	33.3485	1480.09	73.05	69.2338	1320.44	136.646	219.14	1068.95	-47.0607	171.799	984.41	-52.4748
321	1.337	-116.206	1541.52	-41.2402	42.6681	1365.37	-137.872	108.62	1155.73	127.502	293.662	1037.43	-92.4365	151.662	1050.81	76.7268	33.2874	1480.06	73.1449	69.3479	1320.35	136.51	219.889	1072.06	-48.1142	172.944	987.23	-54.6825
322	1.342	-116.259	1541.51	-41.1413	42.6135	1365.36	-137.786	108.937	1155.89	126.917	294.772	1042.6	-94.4534	152.638	1052.22	74.8254	33.2203	1480.02	73.2441	69.4523	1320.24	136.342	220.756	1075.99	-49.4327	174.799	990.137	-56.7021
323	1.346	-116.307	1541.49	-41.0656	42.6589	1365.41	-137.757	109.253	1156.01	126.443	295.677	1046.81	-96.019	153.449	1053.31	73.2262	33.2437	1480.01	73.3055	69.5607	1320.12	136.183	221.445	1079.06	-50.4025	176.655	992.438	-58.1311
324	1.35	-116.355	1541.48	-40.9869	42.5319	1365.33	-137.642	109.561	1156.16	125.953	296.523	1050.97	-97.5697	154.26	1054.39	71.5578	33.0963	1479.93	73.4139	69.6512	1320.04	136.049	222.129	1082.2	-51.471	178.39	994.541	-59.4286
325	1.354	-116.407	1541.45	-40.9108	42.5001	1365.33	-137.576	109.88	1156.29	125.479	297.379	1055.24	-99.0561	155.04	1055.54	69.8859	33.0381	1479.9	73.5248	69.7488	1319.97	135.902	222.783	1085.28	-52.4266	177.351	1002.28	-67.1963
326	1.358	-116.456	1541.44	-40.8232	42.5514	1365.41	-137.544	110.186	1156.38	124.99	298.32	1059.61	-100.433	155.802	1056.68	68.2586	33.0753	1479.92	73.5872	69.8564	1319.88	135.761	223.499	1088.49	-53.4664	178.194	1005.71	-70.252
327	1.363	-116.504	1541.43	-40.7159	42.3939	1365.34	-137.428	110.604	1156.55	124.369	299.43	1064.93	-102.191	156.789	1058.14	66.2156	32.9048	1479.86	73.7199	70.0132	1319.77	135.56	224.324	1092.47	-54.65	179.318	1010.1	-73.6822
328	1.367	-116.55	1541.42	-40.6325	42.3506	1365.34	-137.36	110.956	1156.68	123.838	300.216	1069.1	-103.642	157.527	1059.26	64.4815	32.8543	1479.84	73.8144	70.1183	1319.72	135.386	225.035	1095.75	-55.695	180.195	1013.43	-76.104
329	1.371	-116.603	1541.41	-40.5346	42.3091	1365.33	-137.293	111.283	1156.78	123.268	301.001	1073.33	-105.073	158.292	1060.47	62.802	32.7945	1479.83	73.8949	70.2455	1319.67	135.171	225.653	1098.95	-56.6203	181.079	1016.76	-78.3559
330	1.375	-116.655	1541.4	-40.4554	42.2574	1365.35	-137.207	111.66	1156.87	122.679	301.763	1077.57	-106.439	159.139	1061.63	61.1086	32.712	1479.81	74.0529	70.4034	1319.61	134.986	226.348	1102.25	-57.6287	181.91	1020.41	-80.854
331	1.379	-116.706	1541.39	-40.374	42.2124	1365.35	-137.132	112.091	1156.98	122.09	302.464	1081.77	-107.78	159.948	1062.84	59.4435	32.6608	1479.81	74.1358	70.559	1319.56	134.803	226.98	1105.47	-58.575	182.774	1024.01	-83.305
332	1.383	-116.753	1541.38	-40.2876	42.1746	1365.36	-137.05	112.516	1157.11	121.462	303.191	1086.06	-109.152	160.729	1064.05	57.7004	32.6019	1479.81	74.2381	70.7125	1319.5	134.578	227.608	1108.72	-59.566	183.593	1027.77	-85.7829
333	1.387	-116.798	1541.38	-40.1915	42.1204	1365.37	-136.967	112.967	1157.25	120.85	303.879	1090.35	-110.477	161.534	1065.24	55.9431	32.5379	1479.82	74.3259	70.8667	1319.44	134.353	228.193	1111.92	-60.5098	184.482	1031.35	-88.0594
334	1.392	-116.859	1541.37	-40.0729	42.0738	1365.39	-136.864	113.502	1157.38	120.053	304.719	1095.66	-112.19	162.545	1066.79	53.7624	32.4729	1479.81	74.4257	71.0652	1319.38	134.083	228.915	1115.97	-61.734	185.473	1036.12	-91.1908
335	1.396	-116.916	1541.35	-39.9877	42.1202	1365.46	-136.806	114.003	1157.54	119.296	305.483	1100.1	-113.52	163.385	1068.07	51.9829	32.5053	1479.84	74.4735	71.235	1319.32	133.865	229.482	1119.17	-62.6232	186.401	1039.4	-93.1579
336	1.4	-116.977	1541.34	-39.8982	42.091	1365.47	-136.73	114.474	1157.72	118.553	306.118	1104.5	-114.715	164.285	1069.31	50.2359	32.4459	1479.83	74.5463	71.4142	1319.29	133.647	230	1122.35	-63.6084	187.21	1043.09	-95.4946
337	1.404	-117.034	1541.34	-39.8046	42.0511	1365.49	-136.633	114.944	1157.88	117.816	306.662	1108.97	-115.932	165.182	1070.75	48.5767	32.3648	1479.82	74.6264	71.6257	1319.25	133.39	230.518	1125.57	-64.508	188.069	1046.44	-97.467
338	1.408	-117.088	1541.34	-39.7087	42.0188	1365.52	-136.554	115.416	1158.11	117.096	307.205	1113.43	-117.21	166.102	1072.14	46.8296	32.3026	1479.82	74.6977	71.8332	1319.2	133.069	230.99	1128.79	-65.4982	188.91	1050.13	-99.6784
339	1.413	-117.177	1541.32	-39.5858	41.9531	1365.53	-136.462	116.002	1158.35	116.188	307.763	1119.04	-118.675	167.268	1073.87	44.6369	32.2395	1479.8	74.8012	72.111	1319.15	132.689	231.546	1132.86	-66.7054	189.973	1054.42	-102.302
340	1.417	-117.23	1541.31	-39.4948	41.9023	1365.53	-136.39	116.507	1158.55	115.388	308.218	1123.49	-119.857	168.17	1075.36	42.9048	32.1971	1479.77	74.8719	72.3227	1319.09	132.371	231.971	1136.12	-67.7025	190.833	1058.09	-104.392
341	1.421	-117.286	1541.3	-39.402	41.8581	1365.55	-136.329	117.077	1158.82	114.536	308.721	1127.92	-121.085	169.13	1076.77	41.179	32.1563	1479.75	74.9414	72.5496	1318.97	131.99	232.374	1139.33	-68.6501	191.661	1061.69	-106.451
342	1.425	-117.343	1541.28	-39.3156	41.8069	1365.56	-136.269	117.659	1159	113.633	309.164	1132.39	-122.25	170.105	1078.27	39.5357	32.1217	1479.72	75.0041	72.7628	1318.9	131.619	232.741	1142.6	-69.6185	192.525	1065.22	-108.431
343	1.429	-117.39	1541.28	-39.2064	41.7871	1365.59	-136.229	118.273	1159.37	112.716	309.566	1136.77	-123.426	171.064	1079.81	37.8315	32.0949	1479.69	75.0632	72.9836	1318.87	131.26	233.137	1145.84	-70.5487	193.293	1069.06	-110.664
344	1.433	-117.435	1541.26	-39.1122	41.7254	1365.61	-136.171	118.884	1159.66	111.777	309.971	1141.17	-124.464	172.043	1081.33	36.0887	32.0624	1479.67	75.1439	73.2404	1318.79	130.813	233.448	1149.15	-71.4868	194.03	1072.48	-112.374
345	1.438	-117.502	1541.26	-38.9658	41.6397	1365.62	-136.095	119.697	1160.11	110.603	310.483	1146.71	-125.802	173.208	1083.29	33.9768	32.0222	1479.64	75.2185	73.5765	1318.74	130.312	233.869	1153.24	-72.5894	194.899	1076.96	-114.666
